<?xml version="1.0" encoding="UTF-8" standalone="no"?>
<svg
   id="visual"
   viewBox="0 0 600.31042 598.36548"
   width="600.31042"
   height="598.36548"
   version="1.1"
   xmlns="http://www.w3.org/2000/svg"
   xmlns:svg="http://www.w3.org/2000/svg">
  <defs
     id="defs81" />
  <g
     transform="translate(270.15406,337.06223)"
     id="g76">
    <path
       d="m 215.9,-257.7 c 61.2,51.7 106.3,122.3 113.3,194.8 6.9,72.4 -24.3,146.6 -68.9,203 -44.7,56.4 -102.7,94.9 -163.9,111.3 -61.2,16.4 -125.5,10.8 -193.9,-4.9 -68.4,-15.6 -140.9,-41.3 -163.8,-90.9 -22.9,-49.5 3.8,-122.9 21.7,-193.2 18,-70.2 27.2,-137.3 65.7,-193.1 38.5,-55.7 106.2,-100 178.7,-105.7 72.5,-5.8 149.9,27 211.1,78.7"
       fill="#ffffff"
       id="path74" />
  </g>
</svg>
