<svg id="visual" viewBox="0 0 900 600" width="900" height="600" xmlns="http://www.w3.org/2000/svg" xmlns:xlink="http://www.w3.org/1999/xlink" version="1.1"><g transform="translate(458.92768815068484 261.1504291689781)"><path d="M166.2 -189.8C212.8 -158.9 246.2 -104.1 256.5 -45.3C266.7 13.5 253.7 76.2 228.5 143.2C203.3 210.1 165.8 281.3 109.5 302.4C53.2 323.6 -21.8 294.8 -92.4 264.4C-163 234.1 -229.1 202.3 -258.3 150C-287.5 97.7 -279.6 24.9 -263 -42.3C-246.3 -109.6 -220.9 -171.2 -175.6 -202.3C-130.3 -233.4 -65.1 -233.9 -2.7 -230.7C59.8 -227.5 119.6 -220.6 166.2 -189.8" fill="#FFFFFF"></path></g></svg>