<?xml version="1.0" encoding="UTF-8" standalone="no"?>
<!-- Created with Inkscape (http://www.inkscape.org/) -->

<svg
   width="142.30251mm"
   height="143.32137mm"
   viewBox="0 0 142.30251 143.32137"
   version="1.1"
   id="svg313"
   xml:space="preserve"
   xmlns="http://www.w3.org/2000/svg"
   xmlns:svg="http://www.w3.org/2000/svg"><defs
     id="defs310" /><g
     id="layer1"
     transform="translate(-27.140856,-77.29746)"><path
       d="m 144.62797,88.461277 c 12.32958,8.175625 21.16666,22.674793 23.89187,38.232293 2.69875,15.5575 -0.74083,32.14687 -7.40833,49.87395 -6.6675,17.70063 -16.58938,36.53896 -31.48542,42.12167 -14.89604,5.60917 -34.739782,-2.01083 -53.419364,-10.05417 C 57.527143,200.61815 40.038184,192.2044 32.312351,178.36669 24.586518,164.52898 26.676726,145.26732 31.068809,127.48732 35.487351,109.68086 42.207768,93.382527 54.193393,85.153985 66.179018,76.925443 83.429848,76.793152 99.939848,77.639818 116.4763,78.486485 132.29838,80.31211 144.62797,88.461277"
       fill="#ffffff"
       id="path436"
       style="stroke-width:0.264583" /></g></svg>
