<svg id="visual" viewBox="0 0 900 600" width="900" height="600" xmlns="http://www.w3.org/2000/svg" xmlns:xlink="http://www.w3.org/1999/xlink" version="1.1"><g transform="translate(466.9483333644924 275.85325518194367)"><path d="M173 -196C229.5 -158.8 284.1 -109.3 297.9 -49.8C311.6 9.7 284.4 79.1 248.1 144.5C211.8 209.9 166.5 271.3 106.8 292.7C47.1 314.2 -26.9 295.7 -101.2 271.5C-175.5 247.3 -250.1 217.4 -293.4 160.6C-336.7 103.8 -348.5 20.1 -319.5 -41C-290.5 -102.2 -220.6 -140.9 -160.5 -177.5C-100.4 -214 -50.2 -248.5 4 -253.3C58.3 -258.1 116.6 -233.2 173 -196" fill="#FFFFFF"></path></g></svg>