<svg id="visual" viewBox="0 0 900 600" width="900" height="600" xmlns="http://www.w3.org/2000/svg" xmlns:xlink="http://www.w3.org/1999/xlink" version="1.1"><path d="M0 353L21.5 362.2C43 371.3 86 389.7 128.8 392.7C171.7 395.7 214.3 383.3 257.2 382.2C300 381 343 391 385.8 399.3C428.7 407.7 471.3 414.3 514.2 421.3C557 428.3 600 435.7 642.8 427.5C685.7 419.3 728.3 395.7 771.2 391.8C814 388 857 404 878.5 412L900 420L900 601L878.5 601C857 601 814 601 771.2 601C728.3 601 685.7 601 642.8 601C600 601 557 601 514.2 601C471.3 601 428.7 601 385.8 601C343 601 300 601 257.2 601C214.3 601 171.7 601 128.8 601C86 601 43 601 21.5 601L0 601Z" fill="#4e59d6"></path><path d="M0 449L21.5 441.5C43 434 86 419 128.8 411C171.7 403 214.3 402 257.2 408.2C300 414.3 343 427.7 385.8 435.5C428.7 443.3 471.3 445.7 514.2 448.3C557 451 600 454 642.8 453.8C685.7 453.7 728.3 450.3 771.2 446.7C814 443 857 439 878.5 437L900 435L900 601L878.5 601C857 601 814 601 771.2 601C728.3 601 685.7 601 642.8 601C600 601 557 601 514.2 601C471.3 601 428.7 601 385.8 601C343 601 300 601 257.2 601C214.3 601 171.7 601 128.8 601C86 601 43 601 21.5 601L0 601Z" fill="#4750c7"></path><path d="M0 503L21.5 497.5C43 492 86 481 128.8 475C171.7 469 214.3 468 257.2 467C300 466 343 465 385.8 466.3C428.7 467.7 471.3 471.3 514.2 478.7C557 486 600 497 642.8 497.5C685.7 498 728.3 488 771.2 482C814 476 857 474 878.5 473L900 472L900 601L878.5 601C857 601 814 601 771.2 601C728.3 601 685.7 601 642.8 601C600 601 557 601 514.2 601C471.3 601 428.7 601 385.8 601C343 601 300 601 257.2 601C214.3 601 171.7 601 128.8 601C86 601 43 601 21.5 601L0 601Z" fill="#3f48b9"></path><path d="M0 540L21.5 538C43 536 86 532 128.8 523.2C171.7 514.3 214.3 500.7 257.2 500.2C300 499.7 343 512.3 385.8 512.2C428.7 512 471.3 499 514.2 500.7C557 502.3 600 518.7 642.8 524.8C685.7 531 728.3 527 771.2 520.8C814 514.7 857 506.3 878.5 502.2L900 498L900 601L878.5 601C857 601 814 601 771.2 601C728.3 601 685.7 601 642.8 601C600 601 557 601 514.2 601C471.3 601 428.7 601 385.8 601C343 601 300 601 257.2 601C214.3 601 171.7 601 128.8 601C86 601 43 601 21.5 601L0 601Z" fill="#3740ab"></path><path d="M0 526L21.5 530.3C43 534.7 86 543.3 128.8 543.3C171.7 543.3 214.3 534.7 257.2 536.7C300 538.7 343 551.3 385.8 557.2C428.7 563 471.3 562 514.2 561.7C557 561.3 600 561.7 642.8 558.5C685.7 555.3 728.3 548.7 771.2 550.2C814 551.7 857 561.3 878.5 566.2L900 571L900 601L878.5 601C857 601 814 601 771.2 601C728.3 601 685.7 601 642.8 601C600 601 557 601 514.2 601C471.3 601 428.7 601 385.8 601C343 601 300 601 257.2 601C214.3 601 171.7 601 128.8 601C86 601 43 601 21.5 601L0 601Z" fill="#2f389d"></path></svg>