<?xml version="1.0" encoding="UTF-8" standalone="no"?>
<!-- Created with Inkscape (http://www.inkscape.org/) -->

<svg
   width="210mm"
   height="297mm"
   viewBox="0 0 210 297"
   version="1.1"
   id="svg3940"
   inkscape:export-filename="sunny.svg"
   inkscape:export-xdpi="96"
   inkscape:export-ydpi="96"
   xmlns:inkscape="http://www.inkscape.org/namespaces/inkscape"
   xmlns:sodipodi="http://sodipodi.sourceforge.net/DTD/sodipodi-0.dtd"
   xmlns="http://www.w3.org/2000/svg"
   xmlns:svg="http://www.w3.org/2000/svg">
  <sodipodi:namedview
     id="namedview3942"
     pagecolor="#ffffff"
     bordercolor="#000000"
     borderopacity="0.25"
     inkscape:showpageshadow="2"
     inkscape:pageopacity="0.0"
     inkscape:pagecheckerboard="0"
     inkscape:deskcolor="#d1d1d1"
     inkscape:document-units="mm"
     showgrid="false" />
  <defs
     id="defs3937" />
  <g
     inkscape:label="Layer 1"
     inkscape:groupmode="layer"
     id="layer1"
     style="display:none">
    <circle
       style="fill:#fff037;fill-opacity:1;stroke-width:0.264583"
       id="path4476"
       cx="105"
       cy="-138.28952"
       r="38.692402"
       transform="scale(1,-1)"
       inkscape:export-filename="path4476.png"
       inkscape:export-xdpi="96"
       inkscape:export-ydpi="96" />
  </g>
  <g
     inkscape:groupmode="layer"
     id="layer2"
     inkscape:label="Layer 2"
     style="display:inline">
    <path
       style="display:inline;fill:#999999;fill-opacity:1;stroke-width:0.264583"
       d="m 64.221586,136.21973 c 0.04655,-10.05936 8.781998,-13.51143 12.011738,-14.13979 7.64666,-1.48769 14.792981,3.42463 14.792981,3.42463 0,0 0.390499,-5.19968 6.443001,-11.71156 5.883804,-6.33037 21.547344,-9.58727 25.347304,1.0526 3.79996,10.63987 4.68661,11.93198 4.68661,11.93198 0,0 2.8827,-6.71364 13.81395,-2.51793 10.00654,3.84078 7.67783,21.51661 7.4245,22.52993 -0.25333,1.01332 -15.80876,2.77607 -35.66337,2.79408 -11.25597,0.0102 -32.600326,1.68214 -44.167456,-2.09394 -5.711227,-1.86442 -4.689258,-11.27 -4.689258,-11.27 z"
       id="path6599-4-7"
       sodipodi:nodetypes="cscsscssssc" />
    <path
       style="fill:#eaeaea;fill-opacity:1;stroke-width:0.264583"
       d="m 46.806015,155.77466 c 0.04655,-10.05936 8.781994,-13.51143 12.011735,-14.13979 7.646667,-1.48768 14.792978,3.42463 14.792978,3.42463 0,0 0.390507,-5.19968 6.443007,-11.71156 5.883794,-6.33036 21.547345,-9.58726 25.347295,1.05261 3.79995,10.63987 4.68661,11.93198 4.68661,11.93198 0,0 2.88269,-6.71364 13.81395,-2.51793 10.00654,3.84078 7.67783,21.51661 7.4245,22.52993 -0.25333,1.01332 -15.80877,2.77607 -35.663361,2.79408 -11.25597,0.0102 -32.600325,1.68214 -44.167456,-2.09394 -5.711227,-1.86442 -4.689258,-11.27 -4.689258,-11.27001 z"
       id="path6599"
       sodipodi:nodetypes="cscsscssssc" />
    <path
       style="fill:#c7c7c7;fill-opacity:1;stroke-width:0.264583"
       d="m 75.825311,154.69988 c 0.04655,-10.05936 8.781998,-13.51143 12.011738,-14.13979 7.64666,-1.48769 14.792981,3.42463 14.792981,3.42463 0,0 0.3905,-5.19968 6.443,-11.71156 5.8838,-6.33037 21.54734,-9.58727 25.3473,1.0526 3.79996,10.63987 4.68661,11.93198 4.68661,11.93198 0,0 2.8827,-6.71364 13.81395,-2.51793 10.00654,3.84078 7.67783,21.51661 7.4245,22.52993 -0.25333,1.01332 -15.80876,2.77607 -35.66337,2.79408 -11.25596,0.0102 -32.600321,1.68214 -44.167451,-2.09394 -5.711227,-1.86442 -4.689258,-11.27 -4.689258,-11.27 z"
       id="path6599-4"
       sodipodi:nodetypes="cscsscssssc" />
  </g>
</svg>
