<?xml version="1.0" encoding="UTF-8" standalone="no"?>
<!-- Created with Inkscape (http://www.inkscape.org/) -->

<svg
   width="148.41418mm"
   height="48.052864mm"
   viewBox="0 0 148.41418 48.052864"
   version="1.1"
   id="svg3940"
   xmlns="http://www.w3.org/2000/svg"
   xmlns:svg="http://www.w3.org/2000/svg">
  <defs
     id="defs3937" />
  <g
     id="layer1"
     style="display:none"
     transform="translate(-30.792905,-124.47358)">
    <circle
       style="fill:#fff037;fill-opacity:1;stroke-width:0.264583"
       id="path4476"
       cx="105"
       cy="-138.28952"
       r="38.692402"
       transform="scale(1,-1)" />
  </g>
  <g
     id="layer4"
     style="display:none"
     transform="translate(-30.792905,-124.47358)">
    <g
       id="g8450"
       transform="translate(9.6731001,47.11158)">
      <path
         style="fill:#ffcc00;fill-opacity:1;stroke-width:0.264583"
         d="m 97.09672,106.69344 6.98613,3.22437 -17.375757,27.04885 18.092277,5.91134 -32.064531,26.1532 20.779253,-22.92884 -16.809193,-4.504 20.125877,-34.85904"
         id="path8441" />
      <path
         style="fill:#ffcc00;fill-opacity:1;stroke-width:0.264583"
         d="m 125.57554,116.13867 c -0.89566,1.25392 -10.56876,18.09228 -10.56876,18.09228 l 15.04704,3.04523 -16.83835,15.76358 27.76538,-17.73402 -18.55808,-4.97262 7.935,-13.74384 z"
         id="path8443" />
      <path
         style="fill:#ffcc00;fill-opacity:1;stroke-width:0.264583"
         d="m 61.734524,116.64533 -15.584439,17.37575 13.434861,-1.07479 -10.568757,11.82268 15.76357,-14.15139 H 52.061424 l 12.539204,-12.5392 z"
         id="path8445" />
    </g>
  </g>
  <g
     id="layer2"
     style="display:none"
     transform="translate(-30.792905,-124.47358)">
    <path
       style="display:inline;fill:#999999;fill-opacity:1;stroke-width:0.264583"
       d="m 64.221586,136.21973 c 0.04655,-10.05936 8.781998,-13.51143 12.011738,-14.13979 7.64666,-1.48769 14.792981,3.42463 14.792981,3.42463 0,0 0.390499,-5.19968 6.443001,-11.71156 5.883804,-6.33037 21.547344,-9.58727 25.347304,1.0526 3.79996,10.63987 4.68661,11.93198 4.68661,11.93198 0,0 2.8827,-6.71364 13.81395,-2.51793 10.00654,3.84078 7.67783,21.51661 7.4245,22.52993 -0.25333,1.01332 -15.80876,2.77607 -35.66337,2.79408 -11.25597,0.0102 -32.600326,1.68214 -44.167456,-2.09394 -5.711227,-1.86442 -4.689258,-11.27 -4.689258,-11.27 z"
       id="path6599-4-7" />
    <path
       style="fill:#eaeaea;fill-opacity:1;stroke-width:0.264583"
       d="m 46.806015,155.77466 c 0.04655,-10.05936 8.781994,-13.51143 12.011735,-14.13979 7.646667,-1.48768 14.792978,3.42463 14.792978,3.42463 0,0 0.390507,-5.19968 6.443007,-11.71156 5.883794,-6.33036 21.547345,-9.58726 25.347295,1.05261 3.79995,10.63987 4.68661,11.93198 4.68661,11.93198 0,0 2.88269,-6.71364 13.81395,-2.51793 10.00654,3.84078 7.67783,21.51661 7.4245,22.52993 -0.25333,1.01332 -15.80877,2.77607 -35.663361,2.79408 -11.25597,0.0102 -32.600325,1.68214 -44.167456,-2.09394 -5.711227,-1.86442 -4.689258,-11.27 -4.689258,-11.27001 z"
       id="path6599" />
    <path
       style="fill:#c7c7c7;fill-opacity:1;stroke-width:0.264583"
       d="m 75.825311,154.69988 c 0.04655,-10.05936 8.781998,-13.51143 12.011738,-14.13979 7.64666,-1.48769 14.792981,3.42463 14.792981,3.42463 0,0 0.3905,-5.19968 6.443,-11.71156 5.8838,-6.33037 21.54734,-9.58727 25.3473,1.0526 3.79996,10.63987 4.68661,11.93198 4.68661,11.93198 0,0 2.8827,-6.71364 13.81395,-2.51793 10.00654,3.84078 7.67783,21.51661 7.4245,22.52993 -0.25333,1.01332 -15.80876,2.77607 -35.66337,2.79408 -11.25596,0.0102 -32.600321,1.68214 -44.167451,-2.09394 -5.711227,-1.86442 -4.689258,-11.27 -4.689258,-11.27 z"
       id="path6599-4" />
  </g>
  <g
     id="layer5"
     transform="translate(-30.792905,-124.47358)">
    <g
       id="g8723"
       transform="translate(-4.064827,1.3551064)">
      <rect
         style="fill:#eaeaea;fill-opacity:1;stroke-width:0.216031"
         id="rect8606"
         width="94.99881"
         height="6.586585"
         x="56.74596"
         y="143.13155"
         ry="3.2932925" />
      <rect
         style="fill:#d9d9d9;fill-opacity:1;stroke-width:0.137468"
         id="rect8660"
         width="71.439102"
         height="3.546623"
         x="55.98597"
         y="152.50476"
         ry="1.7733115" />
      <rect
         style="fill:#d9d9d9;fill-opacity:1;stroke-width:0.137468"
         id="rect8662"
         width="71.439102"
         height="3.546623"
         x="47.566792"
         y="137.99512"
         ry="1.7733115" />
      <rect
         style="fill:#eaeaea;fill-opacity:1;stroke-width:0.18774"
         id="rect8664"
         width="94.99881"
         height="4.9744015"
         x="35.250179"
         y="159.25339"
         ry="2.4872007" />
      <rect
         style="fill:#eaeaea;fill-opacity:1;stroke-width:0.119335"
         id="rect8666"
         width="48.962017"
         height="3.8996129"
         x="123.02461"
         y="137.57846"
         ry="1.9498065" />
      <rect
         style="fill:#eaeaea;fill-opacity:1;stroke-width:0.112639"
         id="rect8668"
         width="53.440304"
         height="3.1830866"
         x="129.83162"
         y="152.62552"
         ry="1.5915433" />
      <rect
         style="fill:#d9d9d9;fill-opacity:1;stroke-width:0.137468"
         id="rect8672"
         width="71.439102"
         height="3.546623"
         x="-148.09631"
         y="123.11846"
         ry="1.7733115"
         transform="scale(-1,1)" />
      <rect
         style="fill:#eaeaea;fill-opacity:1;stroke-width:0.18774"
         id="rect8676"
         width="94.99881"
         height="4.9744015"
         x="-168.83211"
         y="129.8671"
         ry="2.4872007"
         transform="scale(-1,1)" />
      <rect
         style="fill:#eaeaea;fill-opacity:1;stroke-width:0.111775"
         id="rect8682"
         width="37.492859"
         height="4.467741"
         x="-73.32663"
         y="125.05383"
         ry="2.2338705"
         transform="scale(-1,1)" />
      <rect
         style="fill:#d9d9d9;fill-opacity:1;stroke-width:0.0978915"
         id="rect8684"
         width="36.226208"
         height="3.546623"
         x="-71.083939"
         y="132.23834"
         ry="1.7733115"
         transform="scale(-1,1)" />
      <rect
         style="fill:#d9d9d9;fill-opacity:1;stroke-width:0.124909"
         id="rect8686"
         width="42.052803"
         height="4.9744015"
         x="133.5423"
         y="157.73341"
         ry="2.4872007" />
      <rect
         style="fill:#eaeaea;fill-opacity:1;stroke-width:0.166937"
         id="rect8694"
         width="75.112389"
         height="4.9744015"
         x="-157.26086"
         y="-170.90527"
         ry="2.4872007"
         transform="scale(-1)" />
      <rect
         style="fill:#d9d9d9;fill-opacity:1;stroke-width:0.124909"
         id="rect8708"
         width="42.052803"
         height="4.9744015"
         x="-80.646492"
         y="-171.17133"
         ry="2.4872007"
         transform="scale(-1)" />
    </g>
  </g>
  <g
     id="layer3"
     style="display:none"
     transform="translate(-30.792905,-124.47358)">
    <g
       id="g8065"
       transform="translate(-1.8886251,5.0959076)">
      <rect
         style="display:inline;fill:#4e59d6;fill-opacity:1;stroke-width:0.175363"
         id="rect6857"
         width="33.490273"
         height="1.7778339"
         x="50.820358"
         y="-136.88924"
         ry="0.88891697"
         transform="matrix(-0.51714132,0.85590003,-0.86681884,-0.49862321,0,0)" />
      <rect
         style="display:inline;fill:#4e59d6;fill-opacity:1;stroke-width:0.195853"
         id="rect6857-0"
         width="34.406837"
         height="2.1585243"
         x="65.724655"
         y="-123.84678"
         ry="1.0792621"
         transform="matrix(-0.51714132,0.85590003,-0.86681884,-0.49862321,0,0)" />
      <rect
         style="display:inline;fill:#4e59d6;fill-opacity:1;stroke-width:0.195853"
         id="rect6857-2"
         width="34.406837"
         height="2.1585243"
         x="38.959839"
         y="-207.91594"
         ry="1.0792621"
         transform="matrix(-0.51714132,0.85590003,-0.86681884,-0.49862321,0,0)" />
      <rect
         style="display:inline;fill:#4e59d6;fill-opacity:1;stroke-width:0.175363"
         id="rect6857-6"
         width="33.490273"
         height="1.7778339"
         x="70.915535"
         y="-152.76521"
         ry="0.88891697"
         transform="matrix(-0.51714132,0.85590003,-0.86681884,-0.49862321,0,0)" />
      <rect
         style="display:inline;fill:#4e59d6;fill-opacity:1;stroke-width:0.175363"
         id="rect6857-69"
         width="33.490273"
         height="1.7778339"
         x="44.434719"
         y="-162.50027"
         ry="0.88891697"
         transform="matrix(-0.51714132,0.85590003,-0.86681884,-0.49862321,0,0)" />
      <rect
         style="display:inline;fill:#4e59d6;fill-opacity:1;stroke-width:0.0927693"
         id="rect6857-69-2"
         width="17.716795"
         height="0.94049758"
         x="84.109833"
         y="-142.85802"
         ry="0.47024879"
         transform="matrix(-0.51714132,0.85590003,-0.86681884,-0.49862321,0,0)" />
      <rect
         style="display:inline;fill:#4e59d6;fill-opacity:1;stroke-width:0.0927693"
         id="rect6857-69-2-0"
         width="17.716795"
         height="0.94049758"
         x="83.208176"
         y="-165.24234"
         ry="0.47024879"
         transform="matrix(-0.51714132,0.85590003,-0.86681884,-0.49862321,0,0)" />
      <rect
         style="display:inline;fill:#4e59d6;fill-opacity:1;stroke-width:0.0927693"
         id="rect6857-69-2-2"
         width="17.716795"
         height="0.94049758"
         x="51.706005"
         y="-176.20641"
         ry="0.47024879"
         transform="matrix(-0.51714132,0.85590003,-0.86681884,-0.49862321,0,0)" />
      <rect
         style="display:inline;fill:#4e59d6;fill-opacity:1;stroke-width:0.0927693"
         id="rect6857-69-2-00"
         width="17.716795"
         height="0.94049758"
         x="51.033672"
         y="-201.43039"
         ry="0.47024879"
         transform="matrix(-0.51714132,0.85590003,-0.86681884,-0.49862321,0,0)" />
      <rect
         style="display:inline;fill:#4e59d6;fill-opacity:1;stroke-width:0.0927693"
         id="rect6857-69-2-1"
         width="17.716795"
         height="0.94049758"
         x="51.924816"
         y="-146.37213"
         ry="0.47024879"
         transform="matrix(-0.51714132,0.85590003,-0.86681884,-0.49862321,0,0)" />
      <rect
         style="display:inline;fill:#4e59d6;fill-opacity:1;stroke-width:0.175363"
         id="rect6857-5"
         width="33.490273"
         height="1.7778339"
         x="72.066864"
         y="-171.66269"
         ry="0.88891697"
         transform="matrix(-0.51714132,0.85590003,-0.86681884,-0.49862321,0,0)" />
      <rect
         style="display:inline;fill:#4e59d6;fill-opacity:1;stroke-width:0.175363"
         id="rect6857-7"
         width="33.490273"
         height="1.7778339"
         x="46.737408"
         y="-183.49745"
         ry="0.88891697"
         transform="matrix(-0.51714132,0.85590003,-0.86681884,-0.49862321,0,0)" />
      <rect
         style="display:inline;fill:#4e59d6;fill-opacity:1;stroke-width:0.175363"
         id="rect6857-1"
         width="33.490273"
         height="1.7778339"
         x="56.202213"
         y="-194.80574"
         ry="0.88891697"
         transform="matrix(-0.51714132,0.85590003,-0.86681884,-0.49862321,0,0)" />
    </g>
  </g>
</svg>
