<?xml version="1.0" encoding="UTF-8" standalone="no"?>
<!-- Created with Inkscape (http://www.inkscape.org/) -->

<svg
   width="350"
   height="350"
   viewBox="0 0 92.604166 92.604166"
   version="1.1"
   id="svg3405"
   inkscape:export-filename="partly_cloudy.svg"
   inkscape:export-xdpi="96"
   inkscape:export-ydpi="96"
   xmlns:inkscape="http://www.inkscape.org/namespaces/inkscape"
   xmlns:sodipodi="http://sodipodi.sourceforge.net/DTD/sodipodi-0.dtd"
   xmlns="http://www.w3.org/2000/svg"
   xmlns:svg="http://www.w3.org/2000/svg">
  <sodipodi:namedview
     id="namedview3407"
     pagecolor="#6c6c6c"
     bordercolor="#000000"
     borderopacity="0.25"
     inkscape:showpageshadow="2"
     inkscape:pageopacity="0"
     inkscape:pagecheckerboard="0"
     inkscape:deskcolor="#d1d1d1"
     inkscape:document-units="mm"
     showgrid="false" />
  <defs
     id="defs3402" />
  <g
     inkscape:label="parlt_cloudy"
     inkscape:groupmode="layer"
     id="layer1"
     style="display:none">
    <circle
       style="fill:#fff037;fill-opacity:1;stroke-width:0.20188"
       id="path4476"
       cx="62.412514"
       cy="-40.037811"
       r="29.522684"
       transform="scale(1,-1)"
       inkscape:export-filename="path4476.png"
       inkscape:export-xdpi="96"
       inkscape:export-ydpi="96" />
    <path
       style="fill:#eaeaea;fill-opacity:1;stroke-width:0.230914"
       d="M 0.86818584,61.169906 C 0.90877274,52.390644 8.5326307,49.377857 11.351372,48.829458 c 6.6736,-1.298366 12.910511,2.98884 12.910511,2.98884 0,0 0.340818,-4.538007 5.623113,-10.221226 5.135053,-5.524801 18.805347,-8.367243 22.121742,0.918653 3.316388,9.28591 4.090219,10.413597 4.090219,10.413597 0,0 2.515853,-5.859313 12.056063,-2.197515 8.733166,3.352024 6.700795,18.778529 6.479703,19.662901 -0.221093,0.884374 -13.797041,2.422805 -31.125049,2.438523 -9.823599,0.0089 -28.451792,1.468083 -38.5469646,-1.827477 -4.98444296,-1.627163 -4.09252356,-9.835848 -4.09252356,-9.835848 z"
       id="path6599"
       sodipodi:nodetypes="cscsscssssc" />
    <path
       style="fill:#c7c7c7;fill-opacity:1;stroke-width:0.21316"
       d="m 24.18162,62.384741 c 0.0375,-8.104263 7.075162,-10.885402 9.677183,-11.391636 6.160492,-1.198541 11.917875,2.759032 11.917875,2.759032 0,0 0.314609,-4.189091 5.19077,-9.435348 4.740248,-5.100025 17.359483,-7.723927 20.420902,0.848021 3.061415,8.571948 3.775739,9.612928 3.775739,9.612928 0,0 2.32243,-5.408803 11.129126,-2.028556 8.061713,3.094302 6.185602,17.334729 5.981508,18.151104 -0.204094,0.816375 -12.736236,2.236524 -28.731986,2.251033 -9.068296,0.0082 -26.264254,1.355207 -35.583243,-1.686969 -4.601217,-1.502059 -3.777874,-9.079609 -3.777874,-9.079609 z"
       id="path6599-4"
       sodipodi:nodetypes="cscsscssssc" />
  </g>
  <g
     inkscape:groupmode="layer"
     id="layer5"
     inkscape:label="cloudy">
    <path
       style="display:inline;fill:#999999;fill-opacity:1;stroke-width:0.264583"
       d="m 5.2185553,44.713151 c 0.04655,-10.05936 8.7819987,-13.51143 12.0117387,-14.13979 7.64666,-1.48769 14.792981,3.42463 14.792981,3.42463 0,0 0.390499,-5.19968 6.443001,-11.71156 5.883804,-6.33037 21.547344,-9.58727 25.347304,1.0526 3.79996,10.63987 4.68661,11.93198 4.68661,11.93198 0,0 2.8827,-6.71364 13.81395,-2.51793 10.00654,3.84078 7.67783,21.51661 7.4245,22.52993 -0.25333,1.01332 -15.80876,2.77607 -35.66337,2.79408 -11.25597,0.0102 -32.600326,1.68214 -44.1674565,-2.09394 -5.7112272,-1.86442 -4.6892582,-11.27 -4.6892582,-11.27 z"
       id="path6599-4-7"
       sodipodi:nodetypes="cscsscssssc" />
    <path
       style="fill:#eaeaea;fill-opacity:1;stroke-width:0.230914"
       d="m 0.01950951,60.12114 c 0.04059,-8.779262 7.66444499,-11.792049 10.48318649,-12.340448 6.6736,-1.298366 12.910511,2.98884 12.910511,2.98884 0,0 0.340818,-4.538007 5.623113,-10.221226 5.135053,-5.524801 18.805347,-8.367243 22.121742,0.918653 3.316388,9.28591 4.090219,10.413597 4.090219,10.413597 0,0 2.515853,-5.859313 12.056063,-2.197515 8.733166,3.352024 6.700795,18.778529 6.479703,19.662901 -0.221093,0.884374 -13.797041,2.422805 -31.125049,2.438523 -9.823599,0.0089 -28.451792,1.468083 -38.5469655,-1.827477 C -0.87241049,68.329825 0.01950951,60.12114 0.01950951,60.12114 Z"
       id="path6599-7"
       sodipodi:nodetypes="cscsscssssc" />
    <path
       style="fill:#c7c7c7;fill-opacity:1;stroke-width:0.21316"
       d="m 24.049469,61.335975 c 0.0375,-8.104263 7.075162,-10.885402 9.677183,-11.391636 6.160492,-1.198541 11.917875,2.759032 11.917875,2.759032 0,0 0.314609,-4.189091 5.19077,-9.435348 4.740248,-5.100025 17.359483,-7.723927 20.420902,0.848021 3.061415,8.571948 3.775739,9.612928 3.775739,9.612928 0,0 2.32243,-5.408803 11.129126,-2.028556 8.061713,3.094302 6.185602,17.334729 5.981508,18.151104 -0.204094,0.816375 -12.736236,2.236524 -28.731986,2.251033 -9.068296,0.0082 -26.264254,1.355207 -35.583243,-1.686969 -4.601217,-1.502059 -3.777874,-9.079609 -3.777874,-9.079609 z"
       id="path6599-4-2"
       sodipodi:nodetypes="cscsscssssc" />
  </g>
</svg>
