<?xml version="1.0" encoding="UTF-8" standalone="no"?>
<!-- Created with Inkscape (http://www.inkscape.org/) -->

<svg
   width="350"
   height="350"
   viewBox="0 0 92.604166 92.604166"
   version="1.1"
   id="svg3405"
   xmlns="http://www.w3.org/2000/svg"
   xmlns:svg="http://www.w3.org/2000/svg">
  <defs
     id="defs3402" />
  <g
     id="layer8"
     style="display:none">
    <g
       id="g6304"
       transform="matrix(1.987593,0,0,1.987593,-45.556363,-37.278419)"
       style="fill:#f9f9f9">
      <circle
         style="fill:#f9f9f9;stroke-width:0.179234"
         id="path6174"
         cx="56.426422"
         cy="31.52714"
         r="7.5235229" />
      <circle
         style="fill:#f9f9f9;stroke-width:0.232019"
         id="path6176"
         cx="45.230698"
         cy="44.155914"
         r="5.105247" />
      <circle
         style="display:inline;fill:#f9f9f9;stroke-width:0.260512"
         id="path6176-45"
         cx="58.665562"
         cy="46.484619"
         r="5.7322078" />
      <circle
         style="display:inline;fill:#f9f9f9;stroke-width:0.203525"
         id="path6176-2"
         cx="47.917667"
         cy="55.620327"
         r="4.4782867" />
      <circle
         style="display:inline;fill:#f9f9f9;stroke-width:0.134327"
         id="path6176-4"
         cx="37.080212"
         cy="55.172501"
         r="2.9556694" />
      <circle
         style="display:inline;fill:#f9f9f9;stroke-width:0.0773398"
         id="path6176-4-4"
         cx="29.735826"
         cy="58.038601"
         r="1.701749" />
    </g>
  </g>
  <g
     id="layer1"
     style="display:none">
    <circle
       style="fill:#fff037;fill-opacity:1;stroke-width:0.20188"
       id="path4476"
       cx="62.412514"
       cy="-40.037811"
       r="29.522684"
       transform="scale(1,-1)" />
    <path
       style="fill:#eaeaea;fill-opacity:1;stroke-width:0.230914"
       d="M 0.86818584,61.169906 C 0.90877274,52.390644 8.5326307,49.377857 11.351372,48.829458 c 6.6736,-1.298366 12.910511,2.98884 12.910511,2.98884 0,0 0.340818,-4.538007 5.623113,-10.221226 5.135053,-5.524801 18.805347,-8.367243 22.121742,0.918653 3.316388,9.28591 4.090219,10.413597 4.090219,10.413597 0,0 2.515853,-5.859313 12.056063,-2.197515 8.733166,3.352024 6.700795,18.778529 6.479703,19.662901 -0.221093,0.884374 -13.797041,2.422805 -31.125049,2.438523 -9.823599,0.0089 -28.451792,1.468083 -38.5469646,-1.827477 -4.98444296,-1.627163 -4.09252356,-9.835848 -4.09252356,-9.835848 z"
       id="path6599" />
    <path
       style="fill:#c7c7c7;fill-opacity:1;stroke-width:0.21316"
       d="m 24.18162,62.384741 c 0.0375,-8.104263 7.075162,-10.885402 9.677183,-11.391636 6.160492,-1.198541 11.917875,2.759032 11.917875,2.759032 0,0 0.314609,-4.189091 5.19077,-9.435348 4.740248,-5.100025 17.359483,-7.723927 20.420902,0.848021 3.061415,8.571948 3.775739,9.612928 3.775739,9.612928 0,0 2.32243,-5.408803 11.129126,-2.028556 8.061713,3.094302 6.185602,17.334729 5.981508,18.151104 -0.204094,0.816375 -12.736236,2.236524 -28.731986,2.251033 -9.068296,0.0082 -26.264254,1.355207 -35.583243,-1.686969 -4.601217,-1.502059 -3.777874,-9.079609 -3.777874,-9.079609 z"
       id="path6599-4" />
  </g>
  <g
     id="layer5"
     style="display:none">
    <path
       style="display:inline;fill:#999999;fill-opacity:1;stroke-width:0.264583"
       d="m 5.2185553,44.713151 c 0.04655,-10.05936 8.7819987,-13.51143 12.0117387,-14.13979 7.64666,-1.48769 14.792981,3.42463 14.792981,3.42463 0,0 0.390499,-5.19968 6.443001,-11.71156 5.883804,-6.33037 21.547344,-9.58727 25.347304,1.0526 3.79996,10.63987 4.68661,11.93198 4.68661,11.93198 0,0 2.8827,-6.71364 13.81395,-2.51793 10.00654,3.84078 7.67783,21.51661 7.4245,22.52993 -0.25333,1.01332 -15.80876,2.77607 -35.66337,2.79408 -11.25597,0.0102 -32.600326,1.68214 -44.1674565,-2.09394 -5.7112272,-1.86442 -4.6892582,-11.27 -4.6892582,-11.27 z"
       id="path6599-4-7" />
    <path
       style="fill:#eaeaea;fill-opacity:1;stroke-width:0.230914"
       d="m 0.01950951,60.12114 c 0.04059,-8.779262 7.66444499,-11.792049 10.48318649,-12.340448 6.6736,-1.298366 12.910511,2.98884 12.910511,2.98884 0,0 0.340818,-4.538007 5.623113,-10.221226 5.135053,-5.524801 18.805347,-8.367243 22.121742,0.918653 3.316388,9.28591 4.090219,10.413597 4.090219,10.413597 0,0 2.515853,-5.859313 12.056063,-2.197515 8.733166,3.352024 6.700795,18.778529 6.479703,19.662901 -0.221093,0.884374 -13.797041,2.422805 -31.125049,2.438523 -9.823599,0.0089 -28.451792,1.468083 -38.5469655,-1.827477 C -0.87241049,68.329825 0.01950951,60.12114 0.01950951,60.12114 Z"
       id="path6599-7" />
    <path
       style="fill:#c7c7c7;fill-opacity:1;stroke-width:0.21316"
       d="m 24.049469,61.335975 c 0.0375,-8.104263 7.075162,-10.885402 9.677183,-11.391636 6.160492,-1.198541 11.917875,2.759032 11.917875,2.759032 0,0 0.314609,-4.189091 5.19077,-9.435348 4.740248,-5.100025 17.359483,-7.723927 20.420902,0.848021 3.061415,8.571948 3.775739,9.612928 3.775739,9.612928 0,0 2.32243,-5.408803 11.129126,-2.028556 8.061713,3.094302 6.185602,17.334729 5.981508,18.151104 -0.204094,0.816375 -12.736236,2.236524 -28.731986,2.251033 -9.068296,0.0082 -26.264254,1.355207 -35.583243,-1.686969 -4.601217,-1.502059 -3.777874,-9.079609 -3.777874,-9.079609 z"
       id="path6599-4-2" />
  </g>
  <g
     id="layer6"
     style="display:none">
    <circle
       style="display:inline;fill:#fff037;fill-opacity:1;stroke-width:0.20188"
       id="path4476-0"
       cx="46.302082"
       cy="-46.302082"
       r="29.522684"
       transform="scale(1,-1)" />
  </g>
  <g
     id="layer7"
     style="display:none">
    <g
       id="g6020"
       transform="matrix(1.2077693,0,0,1.2077693,-16.019972,-8.4884314)"
       style="fill:#f9f9f9">
      <rect
         style="fill:#f9f9f9;stroke-width:0.370897"
         id="rect5947"
         width="72.56456"
         height="5.2137885"
         x="-52.743317"
         y="58.285473"
         rx="4.4636421"
         ry="2.6068943"
         transform="matrix(0.55730023,-0.83031106,0.89563231,0.4447952,0,0)" />
      <rect
         style="fill:#f9f9f9;stroke-width:0.286492"
         id="rect5947-2"
         width="56.050949"
         height="4.0272803"
         x="-58.171734"
         y="69.577682"
         rx="3.4478452"
         ry="2.0136402"
         transform="matrix(0.55730023,-0.83031106,0.89563231,0.4447952,0,0)" />
      <rect
         style="fill:#f9f9f9;stroke-width:0.189703"
         id="rect5947-2-4"
         width="37.114597"
         height="2.6666965"
         x="-41.476887"
         y="49.717682"
         rx="2.2830191"
         ry="1.3333483"
         transform="matrix(0.55730023,-0.83031106,0.89563231,0.4447952,0,0)" />
      <rect
         style="fill:#f9f9f9;stroke-width:0.294936"
         id="rect5947-2-4-9"
         width="57.702995"
         height="4.1459799"
         x="-44.0396"
         y="79.116989"
         rx="3.5494668"
         ry="2.0729899"
         transform="matrix(0.55730023,-0.83031106,0.89563231,0.4447952,0,0)" />
    </g>
  </g>
  <g
     id="layer9">
    <path
       style="fill:#ffff00;stroke-width:0.266891"
       d="M 74.428397,45.902966 64.921677,67.612114 77.523606,65.544575 71.443728,78.688207 84.266746,61.704863 69.343406,63.92008 77.191977,45.755286 Z"
       id="path6828" />
    <path
       style="fill:#ffff00;stroke-width:0.362572"
       d="M 23.76816,51.17611 11.402493,67.578438 23.58631,66.418677 16.312391,78.181959 30.132839,64.596195 16.676085,65.258916 26.677729,52.335871 Z"
       id="path6771" />
    <path
       style="fill:#ffff00;stroke-width:0.298651"
       d="M 48.233653,46.693315 37.400415,72.767081 H 51.549952 L 42.817035,90.519436 58.62472,68.698835 41.379973,69.253595 50.665606,48.912359 Z"
       id="path6715" />
    <path
       style="display:inline;fill:#999999;fill-opacity:1;stroke-width:0.264583"
       d="m 5.2185549,32.173947 c 0.04655,-10.05936 8.7819991,-13.51143 12.0117391,-14.13979 7.64666,-1.48769 14.792981,3.42463 14.792981,3.42463 0,0 0.390499,-5.19968 6.443001,-11.7115603 5.883804,-6.33037 21.547344,-9.58726982 25.347304,1.0526003 3.79996,10.63987 4.686606,11.93198 4.686606,11.93198 0,0 2.8827,-6.71364 13.81395,-2.51793 10.00654,3.84078 7.67783,21.51661 7.4245,22.52993 -0.25333,1.01332 -15.80876,2.77607 -35.663366,2.79408 -11.25597,0.0102 -32.600326,1.68214 -44.1674561,-2.09394 -5.711228,-1.86442 -4.689259,-11.27 -4.689259,-11.27 z"
       id="path6599-4-7-2" />
    <path
       style="display:inline;fill:#eaeaea;fill-opacity:1;stroke-width:0.230914"
       d="m 0.01950988,47.581936 c 0.04059,-8.779262 7.66444402,-11.792049 10.48318612,-12.340448 6.6736,-1.298366 12.910511,2.98884 12.910511,2.98884 0,0 0.340818,-4.538007 5.623113,-10.221226 5.135053,-5.524801 18.805347,-8.367243 22.121742,0.918653 3.316388,9.28591 4.090219,10.413597 4.090219,10.413597 0,0 2.515853,-5.859313 12.056063,-2.197515 8.733162,3.352024 6.700792,18.778529 6.479702,19.662901 -0.22109,0.884374 -13.79704,2.422805 -31.125048,2.438523 -9.823599,0.0089 -28.451792,1.468083 -38.5469661,-1.827477 -4.98444202,-1.627163 -4.09252202,-9.835848 -4.09252202,-9.835848 z"
       id="path6599-7-7" />
    <path
       style="display:inline;fill:#c7c7c7;fill-opacity:1;stroke-width:0.21316"
       d="m 24.049469,48.796771 c 0.0375,-8.104263 7.075162,-10.885402 9.677183,-11.391636 6.160492,-1.198541 11.917875,2.759032 11.917875,2.759032 0,0 0.314609,-4.189091 5.19077,-9.435348 4.740248,-5.100025 17.359479,-7.723927 20.420899,0.848021 3.06142,8.571948 3.77574,9.612928 3.77574,9.612928 0,0 2.32243,-5.408803 11.12913,-2.028556 8.06171,3.094302 6.1856,17.334729 5.98151,18.151104 -0.2041,0.816375 -12.73624,2.236524 -28.73199,2.251033 -9.068296,0.0082 -26.264254,1.355207 -35.583243,-1.686969 -4.601217,-1.502059 -3.777874,-9.079609 -3.777874,-9.079609 z"
       id="path6599-4-2-6" />
  </g>
</svg>
