<?xml version="1.0" encoding="UTF-8" standalone="no"?>
<!-- Created with Inkscape (http://www.inkscape.org/) -->

<svg
   width="350"
   height="350"
   viewBox="0 0 92.604166 92.604166"
   version="1.1"
   id="svg3405"
   xmlns="http://www.w3.org/2000/svg"
   xmlns:svg="http://www.w3.org/2000/svg">
  <defs
     id="defs3402" />
  <g
     id="layer8"
     style="display:none">
    <g
       id="g6304"
       transform="matrix(1.987593,0,0,1.987593,-45.556363,-37.278419)"
       style="fill:#f9f9f9">
      <circle
         style="fill:#f9f9f9;stroke-width:0.179234"
         id="path6174"
         cx="56.426422"
         cy="31.52714"
         r="7.5235229" />
      <circle
         style="fill:#f9f9f9;stroke-width:0.232019"
         id="path6176"
         cx="45.230698"
         cy="44.155914"
         r="5.105247" />
      <circle
         style="display:inline;fill:#f9f9f9;stroke-width:0.260512"
         id="path6176-45"
         cx="58.665562"
         cy="46.484619"
         r="5.7322078" />
      <circle
         style="display:inline;fill:#f9f9f9;stroke-width:0.203525"
         id="path6176-2"
         cx="47.917667"
         cy="55.620327"
         r="4.4782867" />
      <circle
         style="display:inline;fill:#f9f9f9;stroke-width:0.134327"
         id="path6176-4"
         cx="37.080212"
         cy="55.172501"
         r="2.9556694" />
      <circle
         style="display:inline;fill:#f9f9f9;stroke-width:0.0773398"
         id="path6176-4-4"
         cx="29.735826"
         cy="58.038601"
         r="1.701749" />
    </g>
  </g>
  <g
     id="layer1"
     style="display:none">
    <circle
       style="fill:#fff037;fill-opacity:1;stroke-width:0.20188"
       id="path4476"
       cx="62.412514"
       cy="-40.037811"
       r="29.522684"
       transform="scale(1,-1)" />
    <path
       style="fill:#eaeaea;fill-opacity:1;stroke-width:0.230914"
       d="M 0.86818584,61.169906 C 0.90877274,52.390644 8.5326307,49.377857 11.351372,48.829458 c 6.6736,-1.298366 12.910511,2.98884 12.910511,2.98884 0,0 0.340818,-4.538007 5.623113,-10.221226 5.135053,-5.524801 18.805347,-8.367243 22.121742,0.918653 3.316388,9.28591 4.090219,10.413597 4.090219,10.413597 0,0 2.515853,-5.859313 12.056063,-2.197515 8.733166,3.352024 6.700795,18.778529 6.479703,19.662901 -0.221093,0.884374 -13.797041,2.422805 -31.125049,2.438523 -9.823599,0.0089 -28.451792,1.468083 -38.5469646,-1.827477 -4.98444296,-1.627163 -4.09252356,-9.835848 -4.09252356,-9.835848 z"
       id="path6599" />
    <path
       style="fill:#c7c7c7;fill-opacity:1;stroke-width:0.21316"
       d="m 24.18162,62.384741 c 0.0375,-8.104263 7.075162,-10.885402 9.677183,-11.391636 6.160492,-1.198541 11.917875,2.759032 11.917875,2.759032 0,0 0.314609,-4.189091 5.19077,-9.435348 4.740248,-5.100025 17.359483,-7.723927 20.420902,0.848021 3.061415,8.571948 3.775739,9.612928 3.775739,9.612928 0,0 2.32243,-5.408803 11.129126,-2.028556 8.061713,3.094302 6.185602,17.334729 5.981508,18.151104 -0.204094,0.816375 -12.736236,2.236524 -28.731986,2.251033 -9.068296,0.0082 -26.264254,1.355207 -35.583243,-1.686969 -4.601217,-1.502059 -3.777874,-9.079609 -3.777874,-9.079609 z"
       id="path6599-4" />
  </g>
  <g
     id="layer5"
     style="display:none">
    <path
       style="display:inline;fill:#999999;fill-opacity:1;stroke-width:0.264583"
       d="m 5.2185553,44.713151 c 0.04655,-10.05936 8.7819987,-13.51143 12.0117387,-14.13979 7.64666,-1.48769 14.792981,3.42463 14.792981,3.42463 0,0 0.390499,-5.19968 6.443001,-11.71156 5.883804,-6.33037 21.547344,-9.58727 25.347304,1.0526 3.79996,10.63987 4.68661,11.93198 4.68661,11.93198 0,0 2.8827,-6.71364 13.81395,-2.51793 10.00654,3.84078 7.67783,21.51661 7.4245,22.52993 -0.25333,1.01332 -15.80876,2.77607 -35.66337,2.79408 -11.25597,0.0102 -32.600326,1.68214 -44.1674565,-2.09394 -5.7112272,-1.86442 -4.6892582,-11.27 -4.6892582,-11.27 z"
       id="path6599-4-7" />
    <path
       style="fill:#eaeaea;fill-opacity:1;stroke-width:0.230914"
       d="m 0.01950951,60.12114 c 0.04059,-8.779262 7.66444499,-11.792049 10.48318649,-12.340448 6.6736,-1.298366 12.910511,2.98884 12.910511,2.98884 0,0 0.340818,-4.538007 5.623113,-10.221226 5.135053,-5.524801 18.805347,-8.367243 22.121742,0.918653 3.316388,9.28591 4.090219,10.413597 4.090219,10.413597 0,0 2.515853,-5.859313 12.056063,-2.197515 8.733166,3.352024 6.700795,18.778529 6.479703,19.662901 -0.221093,0.884374 -13.797041,2.422805 -31.125049,2.438523 -9.823599,0.0089 -28.451792,1.468083 -38.5469655,-1.827477 C -0.87241049,68.329825 0.01950951,60.12114 0.01950951,60.12114 Z"
       id="path6599-7" />
    <path
       style="fill:#c7c7c7;fill-opacity:1;stroke-width:0.21316"
       d="m 24.049469,61.335975 c 0.0375,-8.104263 7.075162,-10.885402 9.677183,-11.391636 6.160492,-1.198541 11.917875,2.759032 11.917875,2.759032 0,0 0.314609,-4.189091 5.19077,-9.435348 4.740248,-5.100025 17.359483,-7.723927 20.420902,0.848021 3.061415,8.571948 3.775739,9.612928 3.775739,9.612928 0,0 2.32243,-5.408803 11.129126,-2.028556 8.061713,3.094302 6.185602,17.334729 5.981508,18.151104 -0.204094,0.816375 -12.736236,2.236524 -28.731986,2.251033 -9.068296,0.0082 -26.264254,1.355207 -35.583243,-1.686969 -4.601217,-1.502059 -3.777874,-9.079609 -3.777874,-9.079609 z"
       id="path6599-4-2" />
  </g>
  <g
     id="layer6"
     style="display:none">
    <circle
       style="display:inline;fill:#fff037;fill-opacity:1;stroke-width:0.20188"
       id="path4476-0"
       cx="46.302082"
       cy="-46.302082"
       r="29.522684"
       transform="scale(1,-1)" />
  </g>
  <g
     id="layer7"
     style="display:none">
    <g
       id="g6020"
       transform="matrix(1.2077693,0,0,1.2077693,-16.019972,-8.4884314)"
       style="fill:#f9f9f9">
      <rect
         style="fill:#f9f9f9;stroke-width:0.370897"
         id="rect5947"
         width="72.56456"
         height="5.2137885"
         x="-52.743317"
         y="58.285473"
         rx="4.4636421"
         ry="2.6068943"
         transform="matrix(0.55730023,-0.83031106,0.89563231,0.4447952,0,0)" />
      <rect
         style="fill:#f9f9f9;stroke-width:0.286492"
         id="rect5947-2"
         width="56.050949"
         height="4.0272803"
         x="-58.171734"
         y="69.577682"
         rx="3.4478452"
         ry="2.0136402"
         transform="matrix(0.55730023,-0.83031106,0.89563231,0.4447952,0,0)" />
      <rect
         style="fill:#f9f9f9;stroke-width:0.189703"
         id="rect5947-2-4"
         width="37.114597"
         height="2.6666965"
         x="-41.476887"
         y="49.717682"
         rx="2.2830191"
         ry="1.3333483"
         transform="matrix(0.55730023,-0.83031106,0.89563231,0.4447952,0,0)" />
      <rect
         style="fill:#f9f9f9;stroke-width:0.294936"
         id="rect5947-2-4-9"
         width="57.702995"
         height="4.1459799"
         x="-44.0396"
         y="79.116989"
         rx="3.5494668"
         ry="2.0729899"
         transform="matrix(0.55730023,-0.83031106,0.89563231,0.4447952,0,0)" />
    </g>
  </g>
  <g
     id="layer9"
     style="display:none">
    <path
       style="fill:#ffff00;stroke-width:0.266891"
       d="M 74.428397,45.902966 64.921677,67.612114 77.523606,65.544575 71.443728,78.688207 84.266746,61.704863 69.343406,63.92008 77.191977,45.755286 Z"
       id="path6828" />
    <path
       style="fill:#ffff00;stroke-width:0.362572"
       d="M 23.76816,51.17611 11.402493,67.578438 23.58631,66.418677 16.312391,78.181959 30.132839,64.596195 16.676085,65.258916 26.677729,52.335871 Z"
       id="path6771" />
    <path
       style="fill:#ffff00;stroke-width:0.298651"
       d="M 48.233653,46.693315 37.400415,72.767081 H 51.549952 L 42.817035,90.519436 58.62472,68.698835 41.379973,69.253595 50.665606,48.912359 Z"
       id="path6715" />
    <path
       style="display:inline;fill:#999999;fill-opacity:1;stroke-width:0.264583"
       d="m 5.2185549,32.173947 c 0.04655,-10.05936 8.7819991,-13.51143 12.0117391,-14.13979 7.64666,-1.48769 14.792981,3.42463 14.792981,3.42463 0,0 0.390499,-5.19968 6.443001,-11.7115603 5.883804,-6.33037 21.547344,-9.58726982 25.347304,1.0526003 3.79996,10.63987 4.686606,11.93198 4.686606,11.93198 0,0 2.8827,-6.71364 13.81395,-2.51793 10.00654,3.84078 7.67783,21.51661 7.4245,22.52993 -0.25333,1.01332 -15.80876,2.77607 -35.663366,2.79408 -11.25597,0.0102 -32.600326,1.68214 -44.1674561,-2.09394 -5.711228,-1.86442 -4.689259,-11.27 -4.689259,-11.27 z"
       id="path6599-4-7-2" />
    <path
       style="display:inline;fill:#eaeaea;fill-opacity:1;stroke-width:0.230914"
       d="m 0.01950988,47.581936 c 0.04059,-8.779262 7.66444402,-11.792049 10.48318612,-12.340448 6.6736,-1.298366 12.910511,2.98884 12.910511,2.98884 0,0 0.340818,-4.538007 5.623113,-10.221226 5.135053,-5.524801 18.805347,-8.367243 22.121742,0.918653 3.316388,9.28591 4.090219,10.413597 4.090219,10.413597 0,0 2.515853,-5.859313 12.056063,-2.197515 8.733162,3.352024 6.700792,18.778529 6.479702,19.662901 -0.22109,0.884374 -13.79704,2.422805 -31.125048,2.438523 -9.823599,0.0089 -28.451792,1.468083 -38.5469661,-1.827477 -4.98444202,-1.627163 -4.09252202,-9.835848 -4.09252202,-9.835848 z"
       id="path6599-7-7" />
    <path
       style="display:inline;fill:#c7c7c7;fill-opacity:1;stroke-width:0.21316"
       d="m 24.049469,48.796771 c 0.0375,-8.104263 7.075162,-10.885402 9.677183,-11.391636 6.160492,-1.198541 11.917875,2.759032 11.917875,2.759032 0,0 0.314609,-4.189091 5.19077,-9.435348 4.740248,-5.100025 17.359479,-7.723927 20.420899,0.848021 3.06142,8.571948 3.77574,9.612928 3.77574,9.612928 0,0 2.32243,-5.408803 11.12913,-2.028556 8.06171,3.094302 6.1856,17.334729 5.98151,18.151104 -0.2041,0.816375 -12.73624,2.236524 -28.73199,2.251033 -9.068296,0.0082 -26.264254,1.355207 -35.583243,-1.686969 -4.601217,-1.502059 -3.777874,-9.079609 -3.777874,-9.079609 z"
       id="path6599-4-2-6" />
  </g>
  <g
     id="layer10"
     style="display:none">
    <g
       id="g7108"
       transform="translate(2.2852502,4.7829271)">
      <rect
         style="fill:#f9f9f9;stroke-width:0.446915"
         id="rect6995"
         width="88.935875"
         height="8.2096195"
         x="-0.45110431"
         y="32.685062"
         ry="4.1048098" />
      <rect
         style="fill:#f9f9f9;stroke-width:0.446915"
         id="rect7101"
         width="43.666164"
         height="6.3855848"
         x="35.144489"
         y="44.47118"
         ry="3.1927924" />
      <rect
         style="fill:#f9f9f9;stroke-width:0.446915"
         id="rect7103"
         width="44.060444"
         height="7.0821948"
         x="8.7279367"
         y="54.223709"
         ry="3.1927924" />
      <rect
         style="fill:#f9f9f9;stroke-width:0.446915"
         id="rect7103-6"
         width="44.060444"
         height="7.0821948"
         x="20.301609"
         y="21.732409"
         ry="3.1927924" />
    </g>
  </g>
  <g
     id="layer11"
     style="display:inline">
    <path
       id="path2081"
       style="display:inline;fill:#f2f2f2;fill-opacity:1;stroke-width:0.77523"
       d="m 84.226237,12.954051 c -0.04416,0.08502 -0.07563,0.150237 -0.122397,0.23924 -0.214434,0.408406 -0.455517,0.85698 -0.72433,1.341963 -0.268723,0.485019 -0.564299,1.006516 -0.887759,1.557865 -0.161733,0.275688 -0.330698,0.559584 -0.506151,0.849951 -0.17538,0.290406 -0.358117,0.587674 -0.547348,0.891426 -0.189198,0.303772 -0.38503,0.613696 -0.588038,0.929585 -0.20301,0.315876 -0.41324,0.636677 -0.630087,0.963433 -0.216861,0.326718 -0.440405,0.659057 -0.671134,0.995379 -0.230722,0.336322 -0.467906,0.67653 -0.712555,1.021137 -0.244624,0.344617 -0.497278,0.694291 -0.755861,1.045946 -0.258597,0.351622 -0.524058,0.706229 -0.79664,1.063611 -0.272566,0.357398 -0.551715,0.716576 -0.838353,1.078408 -0.286615,0.361845 -0.580269,0.725294 -0.880924,1.090367 -0.300673,0.365051 -0.608245,0.73198 -0.923006,1.098969 -0.314826,0.366909 -0.636495,0.733785 -0.965403,1.101403 -0.328977,0.367549 -0.665097,0.7355 -1.008308,1.102365 -0.343286,0.366795 -0.693796,0.733505 -1.051088,1.098599 -0.357484,0.364916 -0.721675,0.729699 -1.093334,1.091493 -0.371644,0.361796 -0.750085,0.720778 -1.13593,1.078208 -0.385858,0.357437 -0.778366,0.713222 -1.178566,1.064895 -0.400197,0.35169 -0.807429,0.699306 -1.221984,1.043977 -0.41458,0.344629 -0.836445,0.686681 -1.265417,1.02306 -0.428978,0.336363 -0.864786,0.667244 -1.308208,0.994049 -0.443425,0.32679 -0.894567,0.649529 -1.352466,0.965492 -0.457886,0.315968 -0.923655,0.625015 -1.396081,0.928852 -0.236253,0.151881 -0.474107,0.303457 -0.713956,0.452114 -0.239857,0.148642 -0.480825,0.294405 -0.724293,0.439657 -0.243497,0.145236 -0.489528,0.289299 -0.736674,0.430918 -0.247139,0.141664 -0.495781,0.281998 -0.746564,0.419887 -0.250799,0.1379 -0.503952,0.273856 -0.758396,0.407842 -0.254433,0.133991 -0.510634,0.265457 -0.768737,0.395386 -0.258096,0.129938 -0.517327,0.257208 -0.779109,0.382878 -0.261779,0.125687 -0.525476,0.249569 -0.790925,0.370848 -0.26542,0.121307 -0.532623,0.240179 -0.801735,0.356923 -0.269106,0.116764 -0.539761,0.230952 -0.812554,0.343003 -0.272778,0.112151 -0.548331,0.222382 -0.824816,0.329574 -0.276466,0.107253 -0.55445,0.211609 -0.83464,0.313733 -0.28019,0.102039 -0.562037,0.2014 -0.84596,0.298212 -0.283812,0.09709 -0.56963,0.191322 -0.857131,0.283183 -0.287564,0.09164 -0.57717,0.181546 -0.86848,0.267571 -0.291304,0.08602 -0.584234,0.168415 -0.87912,0.249174 -0.294977,0.08049 -0.591767,0.158955 -0.890443,0.233653 -0.298719,0.0746 -0.598763,0.146288 -0.901177,0.214938 -0.302384,0.06872 -0.607221,0.134208 -0.913346,0.196762 -0.306112,0.06252 -0.61422,0.121833 -0.924077,0.178075 -0.309856,0.05622 -0.621221,0.109576 -0.934802,0.159385 -0.31359,0.04978 -0.628656,0.09612 -0.945984,0.139275 -0.317326,0.04316 -0.637546,0.08325 -0.958617,0.119619 -0.32107,0.03636 -0.643999,0.06817 -0.968809,0.0976 -0.324822,0.02943 -0.650965,0.05658 -0.979531,0.07893 -0.328555,0.02235 -0.659302,0.04085 -0.991623,0.05595 -0.332314,0.0151 -0.66571,0.02629 -1.001801,0.03393 -0.3361,0.0078 -0.675497,0.01132 -1.015348,0.01143 -0.339864,5.5e-5 -0.680458,-0.0034 -1.024077,-0.01106 -0.343612,-0.0076 -0.689233,-0.01995 -1.036621,-0.03548 -0.347392,-0.01552 -0.697542,-0.03485 -1.048715,-0.05843 -0.351161,-0.02355 -0.702946,-0.05056 -1.057901,-0.08235 -0.354942,-0.03183 -0.712152,-0.06803 -1.070899,-0.108203 -0.358746,-0.04018 -0.719441,-0.08434 -1.081988,-0.133069 -0.362555,-0.04871 -0.727202,-0.101964 -1.093536,-0.159382 -0.366341,-0.05742 -0.734943,-0.119428 -1.105085,-0.185682 -0.370141,-0.06624 -0.742682,-0.136737 -1.116632,-0.212001 -0.373941,-0.07526 -0.748967,-0.154329 -1.126724,-0.238764 -0.377756,-0.08446 -0.7576,-0.174169 -1.139184,-0.267941 -0.381582,-0.09375 -0.765782,-0.192437 -1.151183,-0.295697 -0.385407,-0.103243 -0.772505,-0.210966 -1.161733,-0.323877 -0.38924,-0.112919 -0.779674,-0.230799 -1.172735,-0.353514 -0.393073,-0.122711 -0.788297,-0.250012 -1.185193,-0.382696 -0.396888,-0.132697 -0.795916,-0.270951 -1.196647,-0.413762 -0.40074,-0.142839 -0.803077,-0.290294 -1.20766,-0.443399 -0.404578,-0.153109 -0.81113,-0.312356 -1.219567,-0.475894 -0.408444,-0.16353 -0.818281,-0.331384 -1.23057,-0.505536 -0.412305,-0.174143 -0.826786,-0.354555 -1.242938,-0.539471 -0.416149,-0.18491 -0.834377,-0.374699 -1.254396,-0.570534 -0.420014,-0.195849 -0.842879,-0.39754 -1.266761,-0.604483 -0.423888,-0.206928 -0.849477,-0.419246 -1.277228,-0.637435 -0.427742,-0.218184 -0.856491,-0.442252 -1.2881345,-0.67183 -0.02173,-0.01173 -0.04387,-0.02425 -0.06573,-0.03597 a 38.93797,39.485012 72.395231 0 0 0.6164285,2.235274 38.93797,39.485012 72.395231 0 0 49.413323,25.172483 38.93797,39.485012 72.395231 0 0 25.857992,-49.056945 38.93797,39.485012 72.395231 0 0 -1.335909,-3.524531 z" />
    <path
       style="display:inline;fill:#808080;fill-opacity:1;stroke-width:0.216357"
       d="M 0.13678031,67.000866 C 0.17484296,58.775023 7.318083,55.952161 9.9591395,55.438332 c 6.2529115,-1.21652 12.0966655,2.800425 12.0966655,2.800425 0,0 0.31933,-4.251937 5.268641,-9.576897 4.811359,-5.176535 17.61991,-7.839801 20.727247,0.860741 3.107337,8.700544 3.83238,9.757141 3.83238,9.757141 0,0 2.357268,-5.489947 11.296086,-2.058987 8.182651,3.140721 6.278394,17.594781 6.071238,18.423404 -0.207155,0.828622 -12.927305,2.270077 -29.163004,2.284803 C 30.884048,77.937262 13.430122,79.3045 3.9713286,76.216685 -0.6989142,74.692092 0.13678031,67.000866 0.13678031,67.000866 Z"
       id="path6599-41" />
    <path
       style="display:inline;fill:#c7c7c7;fill-opacity:1;stroke-width:0.216357"
       d="m 23.074785,68.420224 c 0.03807,-8.225842 7.181302,-11.048704 9.822359,-11.562532 6.252911,-1.216522 12.096666,2.800423 12.096666,2.800423 0,0 0.319328,-4.251936 5.268641,-9.576897 4.811361,-5.176535 17.619908,-7.839799 20.727253,0.860743 3.107342,8.700543 3.832381,9.75714 3.832381,9.75714 0,0 2.357273,-5.489946 11.296085,-2.058987 8.18265,3.140722 6.278394,17.594782 6.071239,18.423404 -0.207155,0.828623 -12.927301,2.270077 -29.163016,2.284803 -9.204338,0.0083 -26.658267,1.375537 -36.117059,-1.712278 -4.670244,-1.524592 -3.834549,-9.215819 -3.834549,-9.215819 z"
       id="path6599-4-3" />
  </g>
</svg>
