<?xml version="1.0" encoding="UTF-8" standalone="no"?>
<!-- Created with Inkscape (http://www.inkscape.org/) -->

<svg
   width="350"
   height="350"
   viewBox="0 0 92.604166 92.604166"
   version="1.1"
   id="svg3405"
   xmlns="http://www.w3.org/2000/svg"
   xmlns:svg="http://www.w3.org/2000/svg">
  <defs
     id="defs3402" />
  <g
     id="layer8"
     style="display:none">
    <g
       id="g6304"
       transform="matrix(1.987593,0,0,1.987593,-45.556363,-37.278419)"
       style="fill:#f9f9f9">
      <circle
         style="fill:#f9f9f9;stroke-width:0.179234"
         id="path6174"
         cx="56.426422"
         cy="31.52714"
         r="7.5235229" />
      <circle
         style="fill:#f9f9f9;stroke-width:0.232019"
         id="path6176"
         cx="45.230698"
         cy="44.155914"
         r="5.105247" />
      <circle
         style="display:inline;fill:#f9f9f9;stroke-width:0.260512"
         id="path6176-45"
         cx="58.665562"
         cy="46.484619"
         r="5.7322078" />
      <circle
         style="display:inline;fill:#f9f9f9;stroke-width:0.203525"
         id="path6176-2"
         cx="47.917667"
         cy="55.620327"
         r="4.4782867" />
      <circle
         style="display:inline;fill:#f9f9f9;stroke-width:0.134327"
         id="path6176-4"
         cx="37.080212"
         cy="55.172501"
         r="2.9556694" />
      <circle
         style="display:inline;fill:#f9f9f9;stroke-width:0.0773398"
         id="path6176-4-4"
         cx="29.735826"
         cy="58.038601"
         r="1.701749" />
    </g>
  </g>
  <g
     id="layer1"
     style="display:none">
    <circle
       style="fill:#fff037;fill-opacity:1;stroke-width:0.20188"
       id="path4476"
       cx="62.412514"
       cy="-40.037811"
       r="29.522684"
       transform="scale(1,-1)" />
    <path
       style="fill:#eaeaea;fill-opacity:1;stroke-width:0.230914"
       d="M 0.86818584,61.169906 C 0.90877274,52.390644 8.5326307,49.377857 11.351372,48.829458 c 6.6736,-1.298366 12.910511,2.98884 12.910511,2.98884 0,0 0.340818,-4.538007 5.623113,-10.221226 5.135053,-5.524801 18.805347,-8.367243 22.121742,0.918653 3.316388,9.28591 4.090219,10.413597 4.090219,10.413597 0,0 2.515853,-5.859313 12.056063,-2.197515 8.733166,3.352024 6.700795,18.778529 6.479703,19.662901 -0.221093,0.884374 -13.797041,2.422805 -31.125049,2.438523 -9.823599,0.0089 -28.451792,1.468083 -38.5469646,-1.827477 -4.98444296,-1.627163 -4.09252356,-9.835848 -4.09252356,-9.835848 z"
       id="path6599" />
    <path
       style="fill:#c7c7c7;fill-opacity:1;stroke-width:0.21316"
       d="m 24.18162,62.384741 c 0.0375,-8.104263 7.075162,-10.885402 9.677183,-11.391636 6.160492,-1.198541 11.917875,2.759032 11.917875,2.759032 0,0 0.314609,-4.189091 5.19077,-9.435348 4.740248,-5.100025 17.359483,-7.723927 20.420902,0.848021 3.061415,8.571948 3.775739,9.612928 3.775739,9.612928 0,0 2.32243,-5.408803 11.129126,-2.028556 8.061713,3.094302 6.185602,17.334729 5.981508,18.151104 -0.204094,0.816375 -12.736236,2.236524 -28.731986,2.251033 -9.068296,0.0082 -26.264254,1.355207 -35.583243,-1.686969 -4.601217,-1.502059 -3.777874,-9.079609 -3.777874,-9.079609 z"
       id="path6599-4" />
  </g>
  <g
     id="layer5"
     style="display:none">
    <path
       style="display:inline;fill:#999999;fill-opacity:1;stroke-width:0.264583"
       d="m 5.2185553,44.713151 c 0.04655,-10.05936 8.7819987,-13.51143 12.0117387,-14.13979 7.64666,-1.48769 14.792981,3.42463 14.792981,3.42463 0,0 0.390499,-5.19968 6.443001,-11.71156 5.883804,-6.33037 21.547344,-9.58727 25.347304,1.0526 3.79996,10.63987 4.68661,11.93198 4.68661,11.93198 0,0 2.8827,-6.71364 13.81395,-2.51793 10.00654,3.84078 7.67783,21.51661 7.4245,22.52993 -0.25333,1.01332 -15.80876,2.77607 -35.66337,2.79408 -11.25597,0.0102 -32.600326,1.68214 -44.1674565,-2.09394 -5.7112272,-1.86442 -4.6892582,-11.27 -4.6892582,-11.27 z"
       id="path6599-4-7" />
    <path
       style="fill:#eaeaea;fill-opacity:1;stroke-width:0.230914"
       d="m 0.01950951,60.12114 c 0.04059,-8.779262 7.66444499,-11.792049 10.48318649,-12.340448 6.6736,-1.298366 12.910511,2.98884 12.910511,2.98884 0,0 0.340818,-4.538007 5.623113,-10.221226 5.135053,-5.524801 18.805347,-8.367243 22.121742,0.918653 3.316388,9.28591 4.090219,10.413597 4.090219,10.413597 0,0 2.515853,-5.859313 12.056063,-2.197515 8.733166,3.352024 6.700795,18.778529 6.479703,19.662901 -0.221093,0.884374 -13.797041,2.422805 -31.125049,2.438523 -9.823599,0.0089 -28.451792,1.468083 -38.5469655,-1.827477 C -0.87241049,68.329825 0.01950951,60.12114 0.01950951,60.12114 Z"
       id="path6599-7" />
    <path
       style="fill:#c7c7c7;fill-opacity:1;stroke-width:0.21316"
       d="m 24.049469,61.335975 c 0.0375,-8.104263 7.075162,-10.885402 9.677183,-11.391636 6.160492,-1.198541 11.917875,2.759032 11.917875,2.759032 0,0 0.314609,-4.189091 5.19077,-9.435348 4.740248,-5.100025 17.359483,-7.723927 20.420902,0.848021 3.061415,8.571948 3.775739,9.612928 3.775739,9.612928 0,0 2.32243,-5.408803 11.129126,-2.028556 8.061713,3.094302 6.185602,17.334729 5.981508,18.151104 -0.204094,0.816375 -12.736236,2.236524 -28.731986,2.251033 -9.068296,0.0082 -26.264254,1.355207 -35.583243,-1.686969 -4.601217,-1.502059 -3.777874,-9.079609 -3.777874,-9.079609 z"
       id="path6599-4-2" />
  </g>
  <g
     id="layer6"
     style="display:none">
    <circle
       style="display:inline;fill:#fff037;fill-opacity:1;stroke-width:0.20188"
       id="path4476-0"
       cx="46.302082"
       cy="-46.302082"
       r="29.522684"
       transform="scale(1,-1)" />
  </g>
  <g
     id="layer7"
     style="display:none">
    <g
       id="g6020"
       transform="matrix(1.2077693,0,0,1.2077693,-16.019972,-8.4884314)"
       style="fill:#f9f9f9">
      <rect
         style="fill:#f9f9f9;stroke-width:0.370897"
         id="rect5947"
         width="72.56456"
         height="5.2137885"
         x="-52.743317"
         y="58.285473"
         rx="4.4636421"
         ry="2.6068943"
         transform="matrix(0.55730023,-0.83031106,0.89563231,0.4447952,0,0)" />
      <rect
         style="fill:#f9f9f9;stroke-width:0.286492"
         id="rect5947-2"
         width="56.050949"
         height="4.0272803"
         x="-58.171734"
         y="69.577682"
         rx="3.4478452"
         ry="2.0136402"
         transform="matrix(0.55730023,-0.83031106,0.89563231,0.4447952,0,0)" />
      <rect
         style="fill:#f9f9f9;stroke-width:0.189703"
         id="rect5947-2-4"
         width="37.114597"
         height="2.6666965"
         x="-41.476887"
         y="49.717682"
         rx="2.2830191"
         ry="1.3333483"
         transform="matrix(0.55730023,-0.83031106,0.89563231,0.4447952,0,0)" />
      <rect
         style="fill:#f9f9f9;stroke-width:0.294936"
         id="rect5947-2-4-9"
         width="57.702995"
         height="4.1459799"
         x="-44.0396"
         y="79.116989"
         rx="3.5494668"
         ry="2.0729899"
         transform="matrix(0.55730023,-0.83031106,0.89563231,0.4447952,0,0)" />
    </g>
  </g>
  <g
     id="layer9"
     style="display:none">
    <path
       style="fill:#ffff00;stroke-width:0.266891"
       d="M 74.428397,45.902966 64.921677,67.612114 77.523606,65.544575 71.443728,78.688207 84.266746,61.704863 69.343406,63.92008 77.191977,45.755286 Z"
       id="path6828" />
    <path
       style="fill:#ffff00;stroke-width:0.362572"
       d="M 23.76816,51.17611 11.402493,67.578438 23.58631,66.418677 16.312391,78.181959 30.132839,64.596195 16.676085,65.258916 26.677729,52.335871 Z"
       id="path6771" />
    <path
       style="fill:#ffff00;stroke-width:0.298651"
       d="M 48.233653,46.693315 37.400415,72.767081 H 51.549952 L 42.817035,90.519436 58.62472,68.698835 41.379973,69.253595 50.665606,48.912359 Z"
       id="path6715" />
    <path
       style="display:inline;fill:#999999;fill-opacity:1;stroke-width:0.264583"
       d="m 5.2185549,32.173947 c 0.04655,-10.05936 8.7819991,-13.51143 12.0117391,-14.13979 7.64666,-1.48769 14.792981,3.42463 14.792981,3.42463 0,0 0.390499,-5.19968 6.443001,-11.7115603 5.883804,-6.33037 21.547344,-9.58726982 25.347304,1.0526003 3.79996,10.63987 4.686606,11.93198 4.686606,11.93198 0,0 2.8827,-6.71364 13.81395,-2.51793 10.00654,3.84078 7.67783,21.51661 7.4245,22.52993 -0.25333,1.01332 -15.80876,2.77607 -35.663366,2.79408 -11.25597,0.0102 -32.600326,1.68214 -44.1674561,-2.09394 -5.711228,-1.86442 -4.689259,-11.27 -4.689259,-11.27 z"
       id="path6599-4-7-2" />
    <path
       style="display:inline;fill:#eaeaea;fill-opacity:1;stroke-width:0.230914"
       d="m 0.01950988,47.581936 c 0.04059,-8.779262 7.66444402,-11.792049 10.48318612,-12.340448 6.6736,-1.298366 12.910511,2.98884 12.910511,2.98884 0,0 0.340818,-4.538007 5.623113,-10.221226 5.135053,-5.524801 18.805347,-8.367243 22.121742,0.918653 3.316388,9.28591 4.090219,10.413597 4.090219,10.413597 0,0 2.515853,-5.859313 12.056063,-2.197515 8.733162,3.352024 6.700792,18.778529 6.479702,19.662901 -0.22109,0.884374 -13.79704,2.422805 -31.125048,2.438523 -9.823599,0.0089 -28.451792,1.468083 -38.5469661,-1.827477 -4.98444202,-1.627163 -4.09252202,-9.835848 -4.09252202,-9.835848 z"
       id="path6599-7-7" />
    <path
       style="display:inline;fill:#c7c7c7;fill-opacity:1;stroke-width:0.21316"
       d="m 24.049469,48.796771 c 0.0375,-8.104263 7.075162,-10.885402 9.677183,-11.391636 6.160492,-1.198541 11.917875,2.759032 11.917875,2.759032 0,0 0.314609,-4.189091 5.19077,-9.435348 4.740248,-5.100025 17.359479,-7.723927 20.420899,0.848021 3.06142,8.571948 3.77574,9.612928 3.77574,9.612928 0,0 2.32243,-5.408803 11.12913,-2.028556 8.06171,3.094302 6.1856,17.334729 5.98151,18.151104 -0.2041,0.816375 -12.73624,2.236524 -28.73199,2.251033 -9.068296,0.0082 -26.264254,1.355207 -35.583243,-1.686969 -4.601217,-1.502059 -3.777874,-9.079609 -3.777874,-9.079609 z"
       id="path6599-4-2-6" />
  </g>
  <g
     id="layer10"
     style="display:none">
    <g
       id="g7108"
       transform="translate(2.2852502,4.7829271)">
      <rect
         style="fill:#f9f9f9;stroke-width:0.446915"
         id="rect6995"
         width="88.935875"
         height="8.2096195"
         x="-0.45110431"
         y="32.685062"
         ry="4.1048098" />
      <rect
         style="fill:#f9f9f9;stroke-width:0.446915"
         id="rect7101"
         width="43.666164"
         height="6.3855848"
         x="35.144489"
         y="44.47118"
         ry="3.1927924" />
      <rect
         style="fill:#f9f9f9;stroke-width:0.446915"
         id="rect7103"
         width="44.060444"
         height="7.0821948"
         x="8.7279367"
         y="54.223709"
         ry="3.1927924" />
      <rect
         style="fill:#f9f9f9;stroke-width:0.446915"
         id="rect7103-6"
         width="44.060444"
         height="7.0821948"
         x="20.301609"
         y="21.732409"
         ry="3.1927924" />
    </g>
  </g>
  <g
     id="layer11"
     style="display:inline">
    <path
       id="path2081"
       style="display:inline;fill:#f2f2f2;fill-opacity:1;stroke-width:0.905286"
       d="m 87.820214,12.95406 c -0.05157,0.09928 -0.08832,0.175442 -0.14293,0.279376 -0.250409,0.476922 -0.531937,1.000751 -0.845847,1.567096 -0.313805,0.566388 -0.658968,1.175374 -1.036693,1.819219 -0.188866,0.321939 -0.386177,0.653462 -0.591065,0.992542 -0.204802,0.339126 -0.418196,0.686265 -0.639173,1.040976 -0.220939,0.354734 -0.449624,0.716652 -0.68669,1.085536 -0.237068,0.368868 -0.482567,0.743488 -0.735793,1.125062 -0.253242,0.38153 -0.514289,0.769623 -0.783726,1.162368 -0.269429,0.392745 -0.546404,0.790027 -0.832096,1.192447 -0.285663,0.402431 -0.580704,0.810768 -0.882667,1.221418 -0.301981,0.410612 -0.611977,0.824709 -0.930288,1.242047 -0.318293,0.417356 -0.644273,0.836792 -0.978999,1.259326 -0.334698,0.42255 -0.677617,0.846972 -1.028711,1.273291 -0.351115,0.426294 -0.710287,0.85478 -1.077853,1.283337 -0.367643,0.428463 -0.743276,0.856888 -1.127363,1.286179 -0.384168,0.42921 -0.776676,0.85889 -1.177466,1.287302 -0.400877,0.42833 -0.81019,0.856561 -1.227423,1.282904 -0.417457,0.426136 -0.842746,0.852117 -1.276756,1.274607 -0.433992,0.422492 -0.875922,0.841698 -1.326498,1.259092 -0.450591,0.417402 -0.908948,0.832875 -1.376287,1.243546 -0.467336,0.410691 -0.942887,0.816625 -1.426989,1.219119 -0.484132,0.402445 -0.976771,0.801882 -1.477709,1.194693 -0.500945,0.392792 -1.009866,0.779183 -1.527678,1.160815 -0.517816,0.381613 -1.044643,0.758496 -1.579361,1.127466 -0.534703,0.368976 -1.078611,0.72987 -1.630293,1.08468 -0.275888,0.177362 -0.553645,0.354367 -0.833732,0.527963 -0.280097,0.173579 -0.561491,0.343795 -0.845804,0.513416 -0.284347,0.169601 -0.571653,0.337832 -0.860261,0.50321 -0.2886,0.16543 -0.578955,0.329307 -0.871811,0.490329 -0.292874,0.161035 -0.588497,0.319799 -0.885627,0.476263 -0.297118,0.15647 -0.5963,0.309991 -0.897704,0.461718 -0.301395,0.151737 -0.604116,0.300358 -0.909815,0.447111 -0.305696,0.146773 -0.613632,0.291438 -0.923614,0.433063 -0.309948,0.141658 -0.621978,0.280472 -0.936238,0.416802 -0.314252,0.136353 -0.630313,0.269697 -0.948871,0.400546 -0.31854,0.130966 -0.640321,0.25969 -0.96319,0.384865 -0.322847,0.125246 -0.647467,0.247109 -0.974663,0.366366 -0.327196,0.119158 -0.656327,0.235188 -0.987882,0.348241 -0.331425,0.113379 -0.665193,0.223419 -1.000926,0.330691 -0.335807,0.107014 -0.673999,0.212003 -1.01418,0.31246 -0.340174,0.100451 -0.682248,0.196669 -1.026605,0.290977 -0.344463,0.09399 -0.691044,0.185622 -1.039827,0.272851 -0.348834,0.08712 -0.699214,0.17083 -1.052362,0.250997 -0.353114,0.08025 -0.709091,0.156723 -1.066573,0.229772 -0.357467,0.07301 -0.717264,0.142272 -1.079104,0.207949 -0.361839,0.06565 -0.725439,0.127959 -1.091628,0.186124 -0.366199,0.05813 -0.734122,0.112246 -1.104686,0.162641 -0.370562,0.0504 -0.744503,0.09722 -1.119439,0.139686 -0.374934,0.04246 -0.752039,0.07961 -1.13134,0.113974 -0.379315,0.03437 -0.760174,0.06607 -1.143861,0.09217 -0.383675,0.0261 -0.769909,0.0477 -1.157982,0.06534 -0.388064,0.01763 -0.777392,0.0307 -1.169867,0.03962 -0.392486,0.0091 -0.788821,0.01322 -1.185687,0.01335 -0.396881,6.4e-5 -0.794614,-0.004 -1.19588,-0.01291 -0.401258,-0.0089 -0.804862,-0.0233 -1.210529,-0.04143 -0.405672,-0.01812 -0.814564,-0.0407 -1.224652,-0.06823 -0.410073,-0.0275 -0.820875,-0.05904 -1.235378,-0.09617 -0.414489,-0.03717 -0.831626,-0.07944 -1.250558,-0.126355 -0.41893,-0.04692 -0.840137,-0.09849 -1.263507,-0.155393 -0.423378,-0.05688 -0.8492,-0.11907 -1.276992,-0.186121 -0.427799,-0.06705 -0.85824,-0.139464 -1.290478,-0.216833 C 22.87037,50.416207 22.43533,50.333881 21.998644,50.24599 21.561969,50.1581 21.124027,50.06577 20.682896,49.96717 20.241767,49.86854 19.798198,49.763782 19.352598,49.654278 18.907001,49.5448 18.458346,49.429557 18.008288,49.308974 17.558224,49.188402 17.106185,49.062607 16.651658,48.930754 16.197118,48.798891 15.741183,48.661235 15.28218,48.517933 14.823164,48.374636 14.361635,48.225978 13.898155,48.071034 13.434683,47.916076 12.968713,47.754628 12.500753,47.587858 12.032783,47.421056 11.562949,47.248863 11.090491,47.070073 10.61804,46.891277 10.143283,46.705315 9.6663248,46.514341 9.1893585,46.323376 8.7107656,46.127362 8.2293093,45.923994 7.7478344,45.720636 7.2638184,45.509957 6.777851,45.294019 6.2918872,45.078088 5.8034955,44.856459 5.3130124,44.62777 4.8225352,44.399065 4.3287287,44.163537 3.8337345,43.921876 3.3387333,43.680233 2.8417458,43.432296 2.3422335,43.177503 1.8427318,42.922715 1.3420541,42.661057 0.83799633,42.392964 c -0.025375,-0.0137 -0.05123,-0.02832 -0.076757,-0.042 A 45.470362,46.109178 72.395231 0 0 1.4810823,44.961237 45.470362,46.109178 72.395231 0 0 59.184185,74.356758 45.470362,46.109178 72.395231 0 0 89.380219,17.069821 45.470362,46.109178 72.395231 0 0 87.820192,12.954 Z" />
    <path
       style="display:none;fill:#808080;fill-opacity:1;stroke-width:0.216357"
       d="M 0.13678031,67.000866 C 0.17484296,58.775023 7.318083,55.952161 9.9591395,55.438332 c 6.2529115,-1.21652 12.0966655,2.800425 12.0966655,2.800425 0,0 0.31933,-4.251937 5.268641,-9.576897 4.811359,-5.176535 17.61991,-7.839801 20.727247,0.860741 3.107337,8.700544 3.83238,9.757141 3.83238,9.757141 0,0 2.357268,-5.489947 11.296086,-2.058987 8.182651,3.140721 6.278394,17.594781 6.071238,18.423404 -0.207155,0.828622 -12.927305,2.270077 -29.163004,2.284803 C 30.884048,77.937262 13.430122,79.3045 3.9713286,76.216685 -0.6989142,74.692092 0.13678031,67.000866 0.13678031,67.000866 Z"
       id="path6599-41" />
    <path
       style="display:none;fill:#c7c7c7;fill-opacity:1;stroke-width:0.216357"
       d="m 23.074785,68.420224 c 0.03807,-8.225842 7.181302,-11.048704 9.822359,-11.562532 6.252911,-1.216522 12.096666,2.800423 12.096666,2.800423 0,0 0.319328,-4.251936 5.268641,-9.576897 4.811361,-5.176535 17.619908,-7.839799 20.727253,0.860743 3.107342,8.700543 3.832381,9.75714 3.832381,9.75714 0,0 2.357273,-5.489946 11.296085,-2.058987 8.18265,3.140722 6.278394,17.594782 6.071239,18.423404 -0.207155,0.828623 -12.927301,2.270077 -29.163016,2.284803 -9.204338,0.0083 -26.658267,1.375537 -36.117059,-1.712278 -4.670244,-1.524592 -3.834549,-9.215819 -3.834549,-9.215819 z"
       id="path6599-4-3" />
  </g>
</svg>
