<?xml version="1.0" encoding="UTF-8" standalone="no"?>
<svg
   id="visual"
   viewBox="0 0 900 209.0799"
   width="900"
   height="209.0799"
   version="1.1"
   xmlns="http://www.w3.org/2000/svg"
   xmlns:svg="http://www.w3.org/2000/svg">
  <defs
     id="defs30" />
  <path
     d="M 0,-1.4980469e-5 21.5,7.756175 c 21.5,7.67188 64.5,23.18426 107.3,25.71345 42.9,2.5292 85.5,-7.92478 128.4,-8.85216 42.8,-1.01168 85.8,7.41896 128.6,14.41639 42.9,7.08174 85.5,12.64598 128.4,18.5474 42.8,5.90146 85.8,12.14013 128.6,5.22701 42.9,-6.91312 85.5,-26.80944 128.4,-30.09739 42.8,-3.20364 85.8,10.28538 107.3,17.0299 l 21.5,6.74451 V 209.0799 h -21.5 c -21.5,0 -64.5,0 -107.3,0 -42.9,0 -85.5,0 -128.4,0 -42.8,0 -85.8,0 -128.6,0 -42.9,0 -85.5,0 -128.4,0 -42.8,0 -85.8,0 -128.6,0 -42.9,0 -85.5,0 -128.4,0 -42.8,0 -85.8,0 -107.3,0 H 0 Z"
     fill="#4e59d6"
     id="path17"
     style="stroke-width:0.918185" />
  <path
     d="m 0,80.934145 21.5,-6.32299 C 43,68.288185 86,55.642215 128.8,48.897705 c 42.9,-6.7445 85.5,-7.58758 128.4,-2.36058 42.8,5.14271 85.8,16.43976 128.6,23.01565 42.9,6.57589 85.5,8.59925 128.4,10.79123 42.8,2.27626 85.8,4.80546 128.6,4.63684 42.9,-0.0844 85.5,-2.95072 128.4,-5.98575 42.8,-3.11933 85.8,-6.49159 107.3,-8.17771 L 900,69.131235 V 209.0799 h -21.5 c -21.5,0 -64.5,0 -107.3,0 -42.9,0 -85.5,0 -128.4,0 -42.8,0 -85.8,0 -128.6,0 -42.9,0 -85.5,0 -128.4,0 -42.8,0 -85.8,0 -128.6,0 -42.9,0 -85.5,0 -128.4,0 -42.8,0 -85.8,0 -107.3,0 H 0 Z"
     fill="#4750c7"
     id="path19"
     style="stroke-width:0.918185" />
  <path
     d="m 0,126.45961 21.5,-4.63685 C 43,117.1859 86,107.9122 128.8,102.85381 c 42.9,-5.058395 85.5,-5.901455 128.4,-6.744505 42.8,-0.84307 85.8,-1.68613 128.6,-0.59015 42.9,1.18029 85.5,4.21532 128.4,10.454005 42.8,6.15437 85.8,15.42807 128.6,15.8496 42.9,0.42153 85.5,-8.00912 128.4,-13.0675 42.8,-5.05838 85.8,-6.74452 107.3,-7.58757 L 900,100.32462 V 209.0799 h -21.5 c -21.5,0 -64.5,0 -107.3,0 -42.9,0 -85.5,0 -128.4,0 -42.8,0 -85.8,0 -128.6,0 -42.9,0 -85.5,0 -128.4,0 -42.8,0 -85.8,0 -128.6,0 -42.9,0 -85.5,0 -128.4,0 -42.8,0 -85.8,0 -107.3,0 H 0 Z"
     fill="#3f48b9"
     id="path21"
     style="stroke-width:0.918185" />
  <path
     d="m 0,157.65298 21.5,-1.68612 c 21.5,-1.68612 64.5,-5.05838 107.3,-12.47735 42.9,-7.50326 85.5,-18.96895 128.4,-19.39047 42.8,-0.42154 85.8,10.20106 128.6,10.11675 42.9,-0.16859 85.5,-11.12843 128.4,-9.69523 42.8,1.34889 85.8,15.17516 128.6,20.31786 42.9,5.22699 85.5,1.85472 128.4,-3.37226 42.8,-5.14269 85.8,-12.22444 107.3,-15.681 l 21.5,-3.54087 v 86.83561 h -21.5 c -21.5,0 -64.5,0 -107.3,0 -42.9,0 -85.5,0 -128.4,0 -42.8,0 -85.8,0 -128.6,0 -42.9,0 -85.5,0 -128.4,0 -42.8,0 -85.8,0 -128.6,0 -42.9,0 -85.5,0 -128.4,0 -42.8,0 -85.8,0 -107.3,0 H 0 Z"
     fill="#3740ab"
     id="path23"
     style="stroke-width:0.918185" />
  <path
     d="m 0,145.85009 21.5,3.62517 c 21.5,3.70948 64.5,10.95984 107.3,10.95984 42.9,0 85.5,-7.25036 128.4,-5.56422 42.8,1.68612 85.8,12.30874 128.6,17.28282 42.9,4.88976 85.5,4.04671 128.4,3.79378 42.8,-0.33722 85.8,0 128.6,-2.6978 42.9,-2.69783 85.5,-8.26204 128.4,-6.99744 42.8,1.26459 85.8,9.35802 107.3,13.48903 l 21.5,4.04671 v 25.29192 h -21.5 c -21.5,0 -64.5,0 -107.3,0 -42.9,0 -85.5,0 -128.4,0 -42.8,0 -85.8,0 -128.6,0 -42.9,0 -85.5,0 -128.4,0 -42.8,0 -85.8,0 -128.6,0 -42.9,0 -85.5,0 -128.4,0 -42.8,0 -85.8,0 -107.3,0 H 0 Z"
     fill="#2f389d"
     id="path25"
     style="stroke-width:0.918185" />
</svg>
